<?xml version="1.0" encoding="utf-8"?>
<!-- Generator: Adobe Illustrator 21.0.0, SVG Export Plug-In . SVG Version: 6.00 Build 0)  -->
<svg version="1.1" id="Layer_1" xmlns:serif="http://www.serif.com/"
	 xmlns="http://www.w3.org/2000/svg" xmlns:xlink="http://www.w3.org/1999/xlink" x="0px" y="0px" viewBox="0 0 882.3 744.1"
	 style="enable-background:new 0 0 882.3 744.1;" xml:space="preserve">
<style type="text/css">
	.st0{fill:none;stroke:#000000;stroke-width:0.1;stroke-linecap:round;stroke-linejoin:round;stroke-miterlimit:1.5;}
	.st1{fill:#E90D00;stroke:#000000;stroke-width:0.1;stroke-linecap:round;stroke-linejoin:round;stroke-miterlimit:1.5;}
	.st2{fill:#E90D00;}
	.st3{font-family:'MyriadPro-Regular';}
	.st4{font-size:96.3233px;}
</style>
<g>
	<circle class="st0" cx="180.7" cy="84.1" r="11"/>
	<circle class="st0" cx="180.7" cy="613.4" r="11"/>
	<circle class="st0" cx="180.7" cy="261.2" r="11"/>
	<circle class="st0" cx="180.7" cy="438.3" r="11"/>
</g>
<g>
	<circle class="st0" cx="707" cy="77.9" r="11"/>
	<circle class="st0" cx="707" cy="607.2" r="11"/>
	<circle class="st0" cx="707" cy="255" r="11"/>
	<circle class="st0" cx="707" cy="432.1" r="11"/>
</g>
<rect x="16.7" y="9.8" class="st0" width="850.7" height="709.2"/>
<circle class="st0" cx="443.8" cy="576.1" r="11"/>
<circle class="st0" cx="439.8" cy="145.9" r="11"/>
<circle class="st0" cx="443" cy="368" r="11"/>
<circle class="st1" cx="789.8" cy="77.9" r="30"/>
<rect x="757.3" y="222.5" class="st1" width="65" height="65"/>
<polygon class="st1" points="763.8,460.3 752.3,423.7 778.3,395.5 815.8,403.9 827.2,440.5 801.2,468.7 "/>
<polygon class="st1" points="789.8,584.6 756.6,642.1 823,642.1 "/>
<circle class="st1" cx="92.3" cy="77.9" r="30"/>
<rect x="71" y="228.7" class="st1" width="65" height="65"/>
<polygon class="st1" points="77.5,466.5 66.1,429.9 92.1,401.7 129.5,410.1 140.9,446.7 114.9,474.9 "/>
<polygon class="st1" points="103.5,578.4 70.3,635.9 136.7,635.9 "/>
<text transform="matrix(1.2148 0 0 1 492.9756 166.8573)" class="st2 st3 st4">1</text>
<text transform="matrix(1.2148 0 0 1 499.9756 397.05)" class="st2 st3 st4">2</text>
<text transform="matrix(1.2148 0 0 1 499.9756 607.1664)" class="st2 st3 st4">3</text>
</svg>
