<?xml version="1.0" encoding="utf-8"?>
<!-- Generator: Adobe Illustrator 21.0.0, SVG Export Plug-In . SVG Version: 6.00 Build 0)  -->
<svg version="1.1" id="Layer_1" xmlns:serif="http://www.serif.com/"
	 xmlns="http://www.w3.org/2000/svg" xmlns:xlink="http://www.w3.org/1999/xlink" x="0px" y="0px" viewBox="0 0 882.3 744.1"
	 style="enable-background:new 0 0 882.3 744.1;" xml:space="preserve">
<style type="text/css">
	.st0{fill:none;stroke:#000000;stroke-width:0.1;stroke-linecap:round;stroke-linejoin:round;stroke-miterlimit:1.5;}
	.st1{fill:none;stroke:#000000;stroke-width:6.232346e-02;}
</style>
<path class="st0" d="M830.9,652h-8.1v-5.3h-13.4v5.3H796v-5.3h-13.4v5.3h-13.4v-5.3h-13.4v5.3h-13.4v-5.3H729v5.3h-13.4v-5.3h-13.4
	v5.3h-13.4v-5.3h-13.4v5.3H662v-5.3h-13.4v5.3h-13.4v-5.3h-13.4v5.3h-13.4v-5.3H595v5.3h-13.4v-5.3h-13.4v5.3h-13.4v-5.3h-13.4v5.3
	H528v-5.3h-13.4v5.3H501v-5.3h-13.4v5.3h-13.4v-5.3h-13.4v5.3h-13.4v-5.3H434v5.3h-13.4v-5.3h-13.4v5.3h-13.4v-5.3h-13.4v5.3H367
	v-5.3h-13.4v5.3h-13.4v-12.9h5.3v-12.9h-5.3v-12.9h5.3v-12.9h-5.3v-12.9h5.3v-12.9h-5.3v-12.9h5.3v-12.9h-5.3V536h5.3v-12.9h-5.3
	v-12.9h13.4v5.3H367v-5.3h13.4v5.3h13.4v-5.3h13.4v5.3h13.4v-5.3H434v5.3h13.4v-5.3h13.4v5.3h13.4v-5.3h13.4v5.3H501v-5.3h13.4v5.3
	h13.4v-5.3h13.4v5.3h13.4v-5.3H568v5.3h13.4v-5.3h13.4v5.3h13.4v-5.3h13.4v5.3H635v-5.3h13.4v5.3h13.4v-5.3h13.4v5.3h13.4v-5.3H702
	v5.3h13.4v-5.3H729v5.3h13.4v-5.3h13.4v5.3h13.4v-5.3h13.4v5.3H796v-5.3h13.4v5.3h13.4v-5.3h8.1v12.9h5.3V536h-5.3v12.9h5.3v12.9
	h-5.3v12.9h5.3v12.9h-5.3v12.9h5.3v12.9h-5.3v12.9h5.3v12.9h-5.3V652z"/>
<path class="st0" d="M311.6,510.2h-8.2v-5.3H290v5.3h-13.5v-5.3H263v5.3h-13.5v-5.3H236v5.3h-13.5v-5.3H209v5.3h-13.5v-5.3H182v5.3
	h-13.5v-5.3H155v5.3h-13.5v-5.3H128v5.3h-13.5v-5.3H101v5.3H87.5v-5.3H74v5.3H60.5v-5.3H47v5.3H33.5v-12.9h5.3v-12.9h-5.3v-12.9h5.3
	v-12.9h-5.3v-12.9h5.3v-12.9h-5.3V420h5.3v-12.9h-5.3v-12.9h5.3v-12.9h-5.3v-12.9H47v5.3h13.5v-5.3H74v5.3h13.5v-5.3H101v5.3h13.5
	v-5.3H128v5.3h13.5v-5.3H155v5.3h13.5v-5.3H182v5.3h13.5v-5.3H209v5.3h13.5v-5.3H236v5.3h13.5v-5.3H263v5.3h13.5v-5.3H290v5.3h13.5
	v-5.3h8.2v12.9h5.3v12.9h-5.3v12.9h5.3V420h-5.3v12.9h5.3v12.9h-5.3v12.9h5.3v12.9h-5.3v12.9h5.3v12.9h-5.3v12.8H311.6z"/>
<path class="st0" d="M306.5,340.2h-8.2v-5.3h-13.5v5.3h-13.5v-5.3h-13.5v5.3h-13.5v-5.3h-13.5v5.3h-13.5v-5.3h-13.5v5.3h-13.5v-5.3
	h-13.5v5.3h-13.5v-5.3h-13.5v5.3h-13.5v-5.3h-13.5v5.3h-13.5v-5.3H95.8v5.3H82.3v-5.3H68.8v5.3H55.3v-5.3H41.8v5.3H28.4v-12.9h5.3
	v-12.9h-5.3v-12.9h5.3v-12.9h-5.3v-12.9h5.3v-12.9h-5.3V250h5.3v-12.9h-5.3v-12.9h5.3v-12.9h-5.3v-12.9h13.5v5.3h13.5v-5.3h13.5v5.3
	h13.5v-5.3h13.5v5.3h13.5v-5.3h13.5v5.3h13.5v-5.3h13.5v5.3h13.5v-5.3h13.5v5.3h13.5v-5.3h13.5v5.3h13.5v-5.3h13.5v5.3h13.5v-5.3
	h13.5v5.3h13.5v-5.3h13.5v5.3h13.5v-5.3h8.2v12.9h5.3v12.9h-5.3v12.9h5.3V250h-5.3v12.9h5.3v12.9h-5.3v12.9h5.3v12.9h-5.3v12.9h5.3
	v12.9h-5.3v12.8H306.5z"/>
<path class="st0" d="M830.9,170.1h-8.1v-5.3h-13.4v5.3H796v-5.3h-13.4v5.3h-13.4v-5.3h-13.4v5.3h-13.4v-5.3H729v5.3h-13.4v-5.3
	h-13.4v5.3h-13.4v-5.3h-13.4v5.3H662v-5.3h-13.4v5.3h-13.4v-5.3h-13.4v5.3h-13.4v-5.3H595v5.3h-13.4v-5.3h-13.4v5.3h-13.4v-5.3
	h-13.4v5.3H528v-5.3h-13.4v5.3H501v-5.3h-13.4v5.3h-13.4v-5.3h-13.4v5.3h-13.4v-5.3H434v5.3h-13.4v-5.3h-13.4v5.3h-13.4v-5.3h-13.4
	v5.3H367v-5.3h-13.4v5.3h-13.4v-12.9h5.3v-12.9h-5.3v-12.9h5.3v-12.9h-5.3v-12.9h5.3V92.8h-5.3V79.9h5.3V67h-5.3V54.1h5.3V41.2h-5.3
	V28.4h13.4v5.3H367v-5.3h13.4v5.3h13.4v-5.3h13.4v5.3h13.4v-5.3H434v5.3h13.4v-5.3h13.4v5.3h13.4v-5.3h13.4v5.3H501v-5.3h13.4v5.3
	h13.4v-5.3h13.4v5.3h13.4v-5.3H568v5.3h13.4v-5.3h13.4v5.3h13.4v-5.3h13.4v5.3H635v-5.3h13.4v5.3h13.4v-5.3h13.4v5.3h13.4v-5.3H702
	v5.3h13.4v-5.3H729v5.3h13.4v-5.3h13.4v5.3h13.4v-5.3h13.4v5.3H796v-5.3h13.4v5.3h13.4v-5.3h8.1v12.9h5.3v12.9h-5.3V67h5.3v12.9
	h-5.3v12.9h5.3v12.9h-5.3v12.9h5.3v12.9h-5.3v12.9h5.3v12.9h-5.3V170.1z"/>
<circle class="st0" cx="753.8" cy="582.8" r="15.8"/>
<rect x="390" y="90" class="st0" width="73" height="5"/>
<rect x="390" y="103.8" class="st0" width="73" height="5"/>
<rect x="390" y="76.2" class="st0" width="73" height="5"/>
<rect x="390" y="117.7" class="st0" width="73" height="5"/>
<g>
	<path class="st0" d="M350.5,219.3h8.1V214H372v5.3h13.4V214h13.4v5.3h13.4V214h13.4v5.3H439V214h13.4l0,5.3h13.4V214h13.4v5.3h13.4
		V214H506v5.3h13.4V214h13.4v5.3h13.4l0-5.3h13.4v5.3H573V214h13.4v5.3h13.4l0-5.3h13.4v5.3h13.4V214H640v5.3h13.4l0-5.3h13.4v5.3
		h13.4V214h13.4v5.3H707l0-5.3h13.4v5.3h13.4V214h13.4v5.3h13.4l0-5.3h13.6v5.3h13.4l0-5.3H801v5.3h13.4V214h13.4v5.3h8.1v8.2h5.3
		V241h-5.3v13.5h5.3V268h-5.3v13.5h5.3V295h-5.3v13.5h5.3V322h-5.3v13.5h5.3V349h-5.3v13.5h5.3V376h-5.3v13.5h5.3V403h-5.3v13.5h5.3
		V430h-5.3v13.5h5.3V457h-5.3v13.5h5.3V484h-5.3v8.2h-8.1v5.3h-13.4v-5.3H801v5.3h-13.4v-5.3h-13.4v5.3h-13.4v-5.3h-13.4v5.3H734
		v-5.3h-13.4v5.3h-13.4v-5.3h-13.4v5.3h-13.4v-5.3H667v5.3h-13.4v-5.3h-13.4v5.3h-13.4v-5.3h-13.4v5.3H600v-5.3h-13.4v5.3h-13.4
		v-5.3h-13.4v5.3h-13.4v-5.3H533v5.3h-13.4v-5.3h-13.4v5.3h-13.4v-5.3h-13.6v5.3h-13.4v-5.3h-13.4v5.3H439v-5.3h-13.4v5.3h-13.4
		v-5.3h-13.4v5.3h-13.4v-5.3H372v5.3h-13.4v-5.3h-8.1V484h-5.3v-13.5h5.3V457h-5.3v-13.5h5.3V430h-5.3v-13.5h5.3V403h-5.3v-13.5h5.3
		V376h-5.3v-13.5h5.3V349h-5.3v-13.5h5.3V322h-5.3v-13.5h5.3V295h-5.3v-13.5h5.3V268h-5.3v-13.5h5.3V241h-5.3v-13.5h5.3
		C350.5,227.5,350.5,219.3,350.5,219.3z"/>
	<path id="path6515-35_1_" inkscape:connector-curvature="0" class="st1" d="M799.8,458.3c3.7,0,6.7,3,6.7,6.7c0,3.7-3,6.7-6.7,6.7
		s-6.7-3-6.7-6.7C793.1,461.2,796,458.3,799.8,458.3z"/>
	<path id="path6515-35_2_" inkscape:connector-curvature="0" class="st1" d="M799.8,239.5c3.7,0,6.7,3,6.7,6.7s-3,6.7-6.7,6.7
		s-6.7-3-6.7-6.7S796,239.5,799.8,239.5z"/>
	<path id="path6515-35_3_" inkscape:connector-curvature="0" class="st1" d="M526,458.3c3.7,0,6.7,3,6.7,6.7c0,3.7-3,6.7-6.7,6.7
		c-3.7,0-6.7-3-6.7-6.7C519.3,461.2,522.3,458.3,526,458.3z"/>
	<path id="path6515-35_4_" inkscape:connector-curvature="0" class="st1" d="M526,236.4c3.7,0,6.7,3,6.7,6.7c0,3.7-3,6.7-6.7,6.7
		c-3.7,0-6.7-3-6.7-6.7C519.3,239.4,522.3,236.4,526,236.4z"/>
</g>
</svg>
