<?xml version="1.0" encoding="utf-8"?>
<!-- Generator: Adobe Illustrator 21.0.0, SVG Export Plug-In . SVG Version: 6.00 Build 0)  -->
<svg version="1.1"
	 id="svg5963" inkscape:version="0.91 r13725" sodipodi:docname="keypad-outline.svg" xmlns:cc="http://creativecommons.org/ns#" xmlns:dc="http://purl.org/dc/elements/1.1/" xmlns:inkscape="http://www.inkscape.org/namespaces/inkscape" xmlns:rdf="http://www.w3.org/1999/02/22-rdf-syntax-ns#" xmlns:sodipodi="http://sodipodi.sourceforge.net/DTD/sodipodi-0.dtd" xmlns:svg="http://www.w3.org/2000/svg"
	 xmlns="http://www.w3.org/2000/svg" xmlns:xlink="http://www.w3.org/1999/xlink" x="0px" y="0px" viewBox="0 0 595.3 841.9"
	 style="enable-background:new 0 0 595.3 841.9;" xml:space="preserve">
<style type="text/css">
	.st0{fill:none;stroke:#000000;stroke-width:0.3383;}
	.st1{fill:none;stroke:#000000;stroke-width:6.232346e-02;}
	.st2{fill:none;stroke:#000000;stroke-width:0.1;stroke-linecap:round;stroke-linejoin:round;stroke-miterlimit:1.5;}
</style>
<sodipodi:namedview  bordercolor="#666666" borderopacity="1.0" id="base" inkscape:current-layer="layer1" inkscape:cx="323.0648" inkscape:cy="165.19574" inkscape:document-units="mm" inkscape:pageopacity="0.0" inkscape:pageshadow="2" inkscape:window-height="1017" inkscape:window-maximized="1" inkscape:window-width="1920" inkscape:window-x="-8" inkscape:window-y="-8" inkscape:zoom="1.979899" pagecolor="#ffffff" showgrid="false" showguides="false">
	</sodipodi:namedview>
<path id="rect6513" inkscape:connector-curvature="0" class="st0" d="M162.3,78.6h201v67.8h-201L162.3,78.6z"/>
<path id="path6515" class="st1" d="M162.1,68.5c0,3.1-2.5,5.6-5.6,5.6s-5.6-2.5-5.6-5.6s2.5-5.6,5.6-5.6S162.1,65.4,162.1,68.5z"/>
<path id="path6515-3" class="st1" d="M374.7,68.5c0,3.1-2.5,5.6-5.6,5.6s-5.6-2.5-5.6-5.6s2.5-5.6,5.6-5.6S374.7,65.4,374.7,68.5z"
	/>
<path id="path6515-35" inkscape:connector-curvature="0" class="st1" d="M374.7,155c0,3.1-2.5,5.6-5.6,5.6s-5.6-2.5-5.6-5.6
	s2.5-5.6,5.6-5.6S374.7,151.9,374.7,155z"/>
<path id="path6515-1" inkscape:connector-curvature="0" class="st1" d="M162.1,155c0,3.1-2.5,5.6-5.6,5.6s-5.6-2.5-5.6-5.6
	s2.5-5.6,5.6-5.6S162.1,151.9,162.1,155z"/>
<path d="M205.3,187.4h114c14.7,0,25.8,10.6,25.8,25.4v143.5c0,6.7-1.3,12-5.7,17.3c-4.7,5.7-11.7,9-19.1,9h-114
	c-14.6,0-25.8-10.6-25.8-25.4V213.8c0-6.7,1.3-12,5.7-17.3C190.8,190.7,197.9,187.4,205.3,187.4z M205.3,204.4
	c-2.9,0-5.6,1.6-6.9,4.2c-1.3,2.4-0.9,6.1-0.9,8.5v134.4c0,1.7-0.2,6.9,0.4,8.7c0.9,2.8,3.3,4.9,6.2,5.3c1,0.2,7.8,0.1,8.8,0.1
	h107.3c2.9,0,5.6-1.6,6.9-4.2c1.3-2.4,0.9-6.1,0.9-8.5V218.5c0-1.7,0.2-6.9-0.4-8.7c-0.9-2.8-3.3-4.9-6.2-5.3
	c-1-0.2-7.8-0.1-8.8-0.1H205.3L205.3,204.4z"/>
<path class="st2" d="M399.2,42.3v8.1h5.3v13.4h-5.3v13.4h5.3v13.4h-5.3V104h5.3v13.4h-5.3v13.4h5.3v13.4h-5.3v13.4h5.3V171h-5.3
	v13.4h5.3v13.4h-5.3v13.4h5.3v13.4h-5.3V238h5.3v13.4h-5.3v13.4h5.3v13.4h-5.3v13.4h5.3V305h-5.3v13.4h5.3v13.4h-5.3v13.4h5.3v13.4
	h-5.3V372h5.3v13.4h-5.3v13.4h5.3v13.4h-5.3v13.4h5.3V439h-5.3v13.4h5.3V466h-5.3v13.4h5.3v13.4h-5.3v13.4h5.3v13.4h-5.3v8.1H391
	v5.3h-13.5v-5.3H364v5.3h-13.5v-5.3H337v5.3h-13.5v-5.3H310v5.3h-13.5v-5.3H283v5.3h-13.5v-5.3H256v5.3h-13.5v-5.3H229v5.3h-13.5
	v-5.3H202v5.3h-13.5v-5.3H175v5.3h-13.5v-5.3H148v5.3h-13.5v-5.3h-8.2v-8.1H121v-13.4h5.3v-13.4H121v-13.4h5.3V466H121v-13.4h5.3
	v-13.4H121v-13.4h5.3v-13.4H121V399h5.3v-13.4H121v-13.4h5.3v-13.4H121v-13.4h5.3V332H121v-13.4h5.3v-13.4H121v-13.4h5.3v-13.4H121
	V265h5.3v-13.4H121v-13.4h5.3v-13.4H121v-13.4h5.3V198H121v-13.4h5.3V171H121v-13.4h5.3v-13.4H121v-13.4h5.3v-13.4H121V104h5.3V90.6
	H121V77.2h5.3V63.8H121V50.4h5.3v-8.1h8.2V37H148v5.3h13.5V37H175v5.3h13.5V37H202v5.3h13.5V37H229v5.3h13.5V37H256v5.3h13.5V37H283
	v5.3h13.5V37H310v5.3h13.5V37H337v5.3h13.5V37H364v5.3h13.5V37H391v5.3H399.2z"/>
<path id="path6515-35_1_" inkscape:connector-curvature="0" class="st1" d="M160.2,491.5c0,3.7-3,6.7-6.7,6.7s-6.7-3-6.7-6.7
	s3-6.7,6.7-6.7S160.2,487.8,160.2,491.5z"/>
<path id="path6515-35_2_" inkscape:connector-curvature="0" class="st1" d="M379,491.5c0,3.7-3,6.7-6.7,6.7s-6.7-3-6.7-6.7
	s3-6.7,6.7-6.7S379,487.8,379,491.5z"/>
<path id="path6515-35_3_" inkscape:connector-curvature="0" class="st1" d="M160.2,217.8c0,3.7-3,6.7-6.7,6.7s-6.7-3-6.7-6.7
	s3-6.7,6.7-6.7S160.2,214.1,160.2,217.8z"/>
<path id="path6515-35_4_" inkscape:connector-curvature="0" class="st1" d="M382.1,217.8c0,3.7-3,6.7-6.7,6.7s-6.7-3-6.7-6.7
	s3-6.7,6.7-6.7S382.1,214.1,382.1,217.8z"/>
<path id="path6515-35_5_" inkscape:connector-curvature="0" class="st1" d="M275.1,440.7c0,5.6-4.4,10.2-9.9,10.2s-9.9-4.6-9.9-10.2
	c0-5.6,4.4-10.2,9.9-10.2S275.1,435.1,275.1,440.7z"/>
</svg>
